<?xml version="1.0" encoding="utf-8" standalone="no"?>
<!DOCTYPE svg PUBLIC "-//W3C//DTD SVG 1.1//EN"
  "http://www.w3.org/Graphics/SVG/1.1/DTD/svg11.dtd">
<svg xmlns:xlink="http://www.w3.org/1999/xlink" width="452.88pt" height="141.12pt" viewBox="0 0 452.88 141.12" xmlns="http://www.w3.org/2000/svg" version="1.1">
 <metadata>
  <rdf:RDF xmlns:dc="http://purl.org/dc/elements/1.1/" xmlns:cc="http://creativecommons.org/ns#" xmlns:rdf="http://www.w3.org/1999/02/22-rdf-syntax-ns#">
   <cc:Work>
    <dc:type rdf:resource="http://purl.org/dc/dcmitype/StillImage"/>
    <dc:date>2023-12-20T14:17:19.563727</dc:date>
    <dc:format>image/svg+xml</dc:format>
    <dc:creator>
     <cc:Agent>
      <dc:title>Matplotlib v3.6.2, https://matplotlib.org/</dc:title>
     </cc:Agent>
    </dc:creator>
   </cc:Work>
  </rdf:RDF>
 </metadata>
 <defs>
  <style type="text/css">*{stroke-linejoin: round; stroke-linecap: butt}</style>
 </defs>
 <g id="figure_1">
  <g id="patch_1">
   <path d="M 0 141.12 
L 452.88 141.12 
L 452.88 0 
L 0 0 
z
" style="fill: #ffffff"/>
  </g>
  <g id="axes_1">
   <g id="patch_2">
    <path d="M 36.05524 115.13476 
L 168.517764 115.13476 
L 168.517764 15.07899 
L 36.05524 15.07899 
z
" style="fill: #ffffff"/>
   </g>
   <g id="PathCollection_1">
    <defs>
     <path id="m1f9999ce35" d="M 0 1.5 
C 0.397805 1.5 0.77937 1.341951 1.06066 1.06066 
C 1.341951 0.77937 1.5 0.397805 1.5 0 
C 1.5 -0.397805 1.341951 -0.77937 1.06066 -1.06066 
C 0.77937 -1.341951 0.397805 -1.5 0 -1.5 
C -0.397805 -1.5 -0.77937 -1.341951 -1.06066 -1.06066 
C -1.341951 -0.77937 -1.5 -0.397805 -1.5 0 
C -1.5 0.397805 -1.341951 0.77937 -1.06066 1.06066 
C -0.77937 1.341951 -0.397805 1.5 0 1.5 
z
" style="stroke: #808080"/>
    </defs>
    <g clip-path="url(#p41ec7d3961)">
     <use xlink:href="#m1f9999ce35" x="61.81564" y="82.826252" style="fill: #808080; stroke: #808080"/>
     <use xlink:href="#m1f9999ce35" x="56.611849" y="41.531383" style="fill: #808080; stroke: #808080"/>
     <use xlink:href="#m1f9999ce35" x="43.807329" y="109.885206" style="fill: #808080; stroke: #808080"/>
     <use xlink:href="#m1f9999ce35" x="72.266478" y="92.706619" style="fill: #808080; stroke: #808080"/>
     <use xlink:href="#m1f9999ce35" x="75.019355" y="73.959255" style="fill: #808080; stroke: #808080"/>
     <use xlink:href="#m1f9999ce35" x="108.72278" y="64.721989" style="fill: #808080; stroke: #808080"/>
     <use xlink:href="#m1f9999ce35" x="51.619662" y="102.947512" style="fill: #808080; stroke: #808080"/>
     <use xlink:href="#m1f9999ce35" x="75.061023" y="95.395949" style="fill: #808080; stroke: #808080"/>
     <use xlink:href="#m1f9999ce35" x="162.49674" y="56.731948" style="fill: #808080; stroke: #808080"/>
     <use xlink:href="#m1f9999ce35" x="42.076264" y="63.007053" style="fill: #808080; stroke: #808080"/>
     <use xlink:href="#m1f9999ce35" x="90.654369" y="39.42669" style="fill: #808080; stroke: #808080"/>
     <use xlink:href="#m1f9999ce35" x="133.780066" y="49.911182" style="fill: #808080; stroke: #808080"/>
     <use xlink:href="#m1f9999ce35" x="68.440431" y="85.262239" style="fill: #808080; stroke: #808080"/>
     <use xlink:href="#m1f9999ce35" x="78.409895" y="84.015014" style="fill: #808080; stroke: #808080"/>
    </g>
   </g>
   <g id="matplotlib.axis_1">
    <g id="xtick_1">
     <g id="line2d_1">
      <defs>
       <path id="m8adc84d496" d="M 0 0 
L 0 -2 
" style="stroke: #000000; stroke-width: 0.8"/>
      </defs>
      <g>
       <use xlink:href="#m8adc84d496" x="50.674898" y="115.13476" style="stroke: #000000; stroke-width: 0.8"/>
      </g>
     </g>
     <g id="text_1">
      <!-- 10 -->
      <g transform="translate(45.584898 124.71351) scale(0.08 -0.08)">
       <defs>
        <path id="DejaVuSans-31" d="M 794 531 
L 1825 531 
L 1825 4091 
L 703 3866 
L 703 4441 
L 1819 4666 
L 2450 4666 
L 2450 531 
L 3481 531 
L 3481 0 
L 794 0 
L 794 531 
z
" transform="scale(0.015625)"/>
        <path id="DejaVuSans-30" d="M 2034 4250 
Q 1547 4250 1301 3770 
Q 1056 3291 1056 2328 
Q 1056 1369 1301 889 
Q 1547 409 2034 409 
Q 2525 409 2770 889 
Q 3016 1369 3016 2328 
Q 3016 3291 2770 3770 
Q 2525 4250 2034 4250 
z
M 2034 4750 
Q 2819 4750 3233 4129 
Q 3647 3509 3647 2328 
Q 3647 1150 3233 529 
Q 2819 -91 2034 -91 
Q 1250 -91 836 529 
Q 422 1150 422 2328 
Q 422 3509 836 4129 
Q 1250 4750 2034 4750 
z
" transform="scale(0.015625)"/>
       </defs>
       <use xlink:href="#DejaVuSans-31"/>
       <use xlink:href="#DejaVuSans-30" x="63.623047"/>
      </g>
     </g>
    </g>
    <g id="xtick_2">
     <g id="line2d_2">
      <g>
       <use xlink:href="#m8adc84d496" x="83.454404" y="115.13476" style="stroke: #000000; stroke-width: 0.8"/>
      </g>
     </g>
     <g id="text_2">
      <!-- 15 -->
      <g transform="translate(78.364404 124.71351) scale(0.08 -0.08)">
       <defs>
        <path id="DejaVuSans-35" d="M 691 4666 
L 3169 4666 
L 3169 4134 
L 1269 4134 
L 1269 2991 
Q 1406 3038 1543 3061 
Q 1681 3084 1819 3084 
Q 2600 3084 3056 2656 
Q 3513 2228 3513 1497 
Q 3513 744 3044 326 
Q 2575 -91 1722 -91 
Q 1428 -91 1123 -41 
Q 819 9 494 109 
L 494 744 
Q 775 591 1075 516 
Q 1375 441 1709 441 
Q 2250 441 2565 725 
Q 2881 1009 2881 1497 
Q 2881 1984 2565 2268 
Q 2250 2553 1709 2553 
Q 1456 2553 1204 2497 
Q 953 2441 691 2322 
L 691 4666 
z
" transform="scale(0.015625)"/>
       </defs>
       <use xlink:href="#DejaVuSans-31"/>
       <use xlink:href="#DejaVuSans-35" x="63.623047"/>
      </g>
     </g>
    </g>
    <g id="xtick_3">
     <g id="line2d_3">
      <g>
       <use xlink:href="#m8adc84d496" x="116.23391" y="115.13476" style="stroke: #000000; stroke-width: 0.8"/>
      </g>
     </g>
     <g id="text_3">
      <!-- 20 -->
      <g transform="translate(111.14391 124.71351) scale(0.08 -0.08)">
       <defs>
        <path id="DejaVuSans-32" d="M 1228 531 
L 3431 531 
L 3431 0 
L 469 0 
L 469 531 
Q 828 903 1448 1529 
Q 2069 2156 2228 2338 
Q 2531 2678 2651 2914 
Q 2772 3150 2772 3378 
Q 2772 3750 2511 3984 
Q 2250 4219 1831 4219 
Q 1534 4219 1204 4116 
Q 875 4013 500 3803 
L 500 4441 
Q 881 4594 1212 4672 
Q 1544 4750 1819 4750 
Q 2544 4750 2975 4387 
Q 3406 4025 3406 3419 
Q 3406 3131 3298 2873 
Q 3191 2616 2906 2266 
Q 2828 2175 2409 1742 
Q 1991 1309 1228 531 
z
" transform="scale(0.015625)"/>
       </defs>
       <use xlink:href="#DejaVuSans-32"/>
       <use xlink:href="#DejaVuSans-30" x="63.623047"/>
      </g>
     </g>
    </g>
    <g id="xtick_4">
     <g id="line2d_4">
      <g>
       <use xlink:href="#m8adc84d496" x="149.013416" y="115.13476" style="stroke: #000000; stroke-width: 0.8"/>
      </g>
     </g>
     <g id="text_4">
      <!-- 25 -->
      <g transform="translate(143.923416 124.71351) scale(0.08 -0.08)">
       <use xlink:href="#DejaVuSans-32"/>
       <use xlink:href="#DejaVuSans-35" x="63.623047"/>
      </g>
     </g>
    </g>
    <g id="text_5">
     <!-- vertical RMSE -->
     <g transform="translate(74.803377 136.45601) scale(0.08 -0.08)">
      <defs>
       <path id="DejaVuSans-76" d="M 191 3500 
L 800 3500 
L 1894 563 
L 2988 3500 
L 3597 3500 
L 2284 0 
L 1503 0 
L 191 3500 
z
" transform="scale(0.015625)"/>
       <path id="DejaVuSans-65" d="M 3597 1894 
L 3597 1613 
L 953 1613 
Q 991 1019 1311 708 
Q 1631 397 2203 397 
Q 2534 397 2845 478 
Q 3156 559 3463 722 
L 3463 178 
Q 3153 47 2828 -22 
Q 2503 -91 2169 -91 
Q 1331 -91 842 396 
Q 353 884 353 1716 
Q 353 2575 817 3079 
Q 1281 3584 2069 3584 
Q 2775 3584 3186 3129 
Q 3597 2675 3597 1894 
z
M 3022 2063 
Q 3016 2534 2758 2815 
Q 2500 3097 2075 3097 
Q 1594 3097 1305 2825 
Q 1016 2553 972 2059 
L 3022 2063 
z
" transform="scale(0.015625)"/>
       <path id="DejaVuSans-72" d="M 2631 2963 
Q 2534 3019 2420 3045 
Q 2306 3072 2169 3072 
Q 1681 3072 1420 2755 
Q 1159 2438 1159 1844 
L 1159 0 
L 581 0 
L 581 3500 
L 1159 3500 
L 1159 2956 
Q 1341 3275 1631 3429 
Q 1922 3584 2338 3584 
Q 2397 3584 2469 3576 
Q 2541 3569 2628 3553 
L 2631 2963 
z
" transform="scale(0.015625)"/>
       <path id="DejaVuSans-74" d="M 1172 4494 
L 1172 3500 
L 2356 3500 
L 2356 3053 
L 1172 3053 
L 1172 1153 
Q 1172 725 1289 603 
Q 1406 481 1766 481 
L 2356 481 
L 2356 0 
L 1766 0 
Q 1100 0 847 248 
Q 594 497 594 1153 
L 594 3053 
L 172 3053 
L 172 3500 
L 594 3500 
L 594 4494 
L 1172 4494 
z
" transform="scale(0.015625)"/>
       <path id="DejaVuSans-69" d="M 603 3500 
L 1178 3500 
L 1178 0 
L 603 0 
L 603 3500 
z
M 603 4863 
L 1178 4863 
L 1178 4134 
L 603 4134 
L 603 4863 
z
" transform="scale(0.015625)"/>
       <path id="DejaVuSans-63" d="M 3122 3366 
L 3122 2828 
Q 2878 2963 2633 3030 
Q 2388 3097 2138 3097 
Q 1578 3097 1268 2742 
Q 959 2388 959 1747 
Q 959 1106 1268 751 
Q 1578 397 2138 397 
Q 2388 397 2633 464 
Q 2878 531 3122 666 
L 3122 134 
Q 2881 22 2623 -34 
Q 2366 -91 2075 -91 
Q 1284 -91 818 406 
Q 353 903 353 1747 
Q 353 2603 823 3093 
Q 1294 3584 2113 3584 
Q 2378 3584 2631 3529 
Q 2884 3475 3122 3366 
z
" transform="scale(0.015625)"/>
       <path id="DejaVuSans-61" d="M 2194 1759 
Q 1497 1759 1228 1600 
Q 959 1441 959 1056 
Q 959 750 1161 570 
Q 1363 391 1709 391 
Q 2188 391 2477 730 
Q 2766 1069 2766 1631 
L 2766 1759 
L 2194 1759 
z
M 3341 1997 
L 3341 0 
L 2766 0 
L 2766 531 
Q 2569 213 2275 61 
Q 1981 -91 1556 -91 
Q 1019 -91 701 211 
Q 384 513 384 1019 
Q 384 1609 779 1909 
Q 1175 2209 1959 2209 
L 2766 2209 
L 2766 2266 
Q 2766 2663 2505 2880 
Q 2244 3097 1772 3097 
Q 1472 3097 1187 3025 
Q 903 2953 641 2809 
L 641 3341 
Q 956 3463 1253 3523 
Q 1550 3584 1831 3584 
Q 2591 3584 2966 3190 
Q 3341 2797 3341 1997 
z
" transform="scale(0.015625)"/>
       <path id="DejaVuSans-6c" d="M 603 4863 
L 1178 4863 
L 1178 0 
L 603 0 
L 603 4863 
z
" transform="scale(0.015625)"/>
       <path id="DejaVuSans-20" transform="scale(0.015625)"/>
       <path id="DejaVuSans-52" d="M 2841 2188 
Q 3044 2119 3236 1894 
Q 3428 1669 3622 1275 
L 4263 0 
L 3584 0 
L 2988 1197 
Q 2756 1666 2539 1819 
Q 2322 1972 1947 1972 
L 1259 1972 
L 1259 0 
L 628 0 
L 628 4666 
L 2053 4666 
Q 2853 4666 3247 4331 
Q 3641 3997 3641 3322 
Q 3641 2881 3436 2590 
Q 3231 2300 2841 2188 
z
M 1259 4147 
L 1259 2491 
L 2053 2491 
Q 2509 2491 2742 2702 
Q 2975 2913 2975 3322 
Q 2975 3731 2742 3939 
Q 2509 4147 2053 4147 
L 1259 4147 
z
" transform="scale(0.015625)"/>
       <path id="DejaVuSans-4d" d="M 628 4666 
L 1569 4666 
L 2759 1491 
L 3956 4666 
L 4897 4666 
L 4897 0 
L 4281 0 
L 4281 4097 
L 3078 897 
L 2444 897 
L 1241 4097 
L 1241 0 
L 628 0 
L 628 4666 
z
" transform="scale(0.015625)"/>
       <path id="DejaVuSans-53" d="M 3425 4513 
L 3425 3897 
Q 3066 4069 2747 4153 
Q 2428 4238 2131 4238 
Q 1616 4238 1336 4038 
Q 1056 3838 1056 3469 
Q 1056 3159 1242 3001 
Q 1428 2844 1947 2747 
L 2328 2669 
Q 3034 2534 3370 2195 
Q 3706 1856 3706 1288 
Q 3706 609 3251 259 
Q 2797 -91 1919 -91 
Q 1588 -91 1214 -16 
Q 841 59 441 206 
L 441 856 
Q 825 641 1194 531 
Q 1563 422 1919 422 
Q 2459 422 2753 634 
Q 3047 847 3047 1241 
Q 3047 1584 2836 1778 
Q 2625 1972 2144 2069 
L 1759 2144 
Q 1053 2284 737 2584 
Q 422 2884 422 3419 
Q 422 4038 858 4394 
Q 1294 4750 2059 4750 
Q 2388 4750 2728 4690 
Q 3069 4631 3425 4513 
z
" transform="scale(0.015625)"/>
       <path id="DejaVuSans-45" d="M 628 4666 
L 3578 4666 
L 3578 4134 
L 1259 4134 
L 1259 2753 
L 3481 2753 
L 3481 2222 
L 1259 2222 
L 1259 531 
L 3634 531 
L 3634 0 
L 628 0 
L 628 4666 
z
" transform="scale(0.015625)"/>
      </defs>
      <use xlink:href="#DejaVuSans-76"/>
      <use xlink:href="#DejaVuSans-65" x="59.179688"/>
      <use xlink:href="#DejaVuSans-72" x="120.703125"/>
      <use xlink:href="#DejaVuSans-74" x="161.816406"/>
      <use xlink:href="#DejaVuSans-69" x="201.025391"/>
      <use xlink:href="#DejaVuSans-63" x="228.808594"/>
      <use xlink:href="#DejaVuSans-61" x="283.789062"/>
      <use xlink:href="#DejaVuSans-6c" x="345.068359"/>
      <use xlink:href="#DejaVuSans-20" x="372.851562"/>
      <use xlink:href="#DejaVuSans-52" x="404.638672"/>
      <use xlink:href="#DejaVuSans-4d" x="474.121094"/>
      <use xlink:href="#DejaVuSans-53" x="560.400391"/>
      <use xlink:href="#DejaVuSans-45" x="623.876953"/>
     </g>
    </g>
   </g>
   <g id="matplotlib.axis_2">
    <g id="ytick_1">
     <g id="line2d_5">
      <defs>
       <path id="m6741253d83" d="M 0 0 
L 2 0 
" style="stroke: #000000; stroke-width: 0.8"/>
      </defs>
      <g>
       <use xlink:href="#m6741253d83" x="36.05524" y="101.632079" style="stroke: #000000; stroke-width: 0.8"/>
      </g>
     </g>
     <g id="text_6">
      <!-- 0.25 -->
      <g transform="translate(14.74274 104.671454) scale(0.08 -0.08)">
       <defs>
        <path id="DejaVuSans-2e" d="M 684 794 
L 1344 794 
L 1344 0 
L 684 0 
L 684 794 
z
" transform="scale(0.015625)"/>
       </defs>
       <use xlink:href="#DejaVuSans-30"/>
       <use xlink:href="#DejaVuSans-2e" x="63.623047"/>
       <use xlink:href="#DejaVuSans-32" x="95.410156"/>
       <use xlink:href="#DejaVuSans-35" x="159.033203"/>
      </g>
     </g>
    </g>
    <g id="ytick_2">
     <g id="line2d_6">
      <g>
       <use xlink:href="#m6741253d83" x="36.05524" y="81.676465" style="stroke: #000000; stroke-width: 0.8"/>
      </g>
     </g>
     <g id="text_7">
      <!-- 0.50 -->
      <g transform="translate(14.74274 84.71584) scale(0.08 -0.08)">
       <use xlink:href="#DejaVuSans-30"/>
       <use xlink:href="#DejaVuSans-2e" x="63.623047"/>
       <use xlink:href="#DejaVuSans-35" x="95.410156"/>
       <use xlink:href="#DejaVuSans-30" x="159.033203"/>
      </g>
     </g>
    </g>
    <g id="ytick_3">
     <g id="line2d_7">
      <g>
       <use xlink:href="#m6741253d83" x="36.05524" y="61.720852" style="stroke: #000000; stroke-width: 0.8"/>
      </g>
     </g>
     <g id="text_8">
      <!-- 0.75 -->
      <g transform="translate(14.74274 64.760227) scale(0.08 -0.08)">
       <defs>
        <path id="DejaVuSans-37" d="M 525 4666 
L 3525 4666 
L 3525 4397 
L 1831 0 
L 1172 0 
L 2766 4134 
L 525 4134 
L 525 4666 
z
" transform="scale(0.015625)"/>
       </defs>
       <use xlink:href="#DejaVuSans-30"/>
       <use xlink:href="#DejaVuSans-2e" x="63.623047"/>
       <use xlink:href="#DejaVuSans-37" x="95.410156"/>
       <use xlink:href="#DejaVuSans-35" x="159.033203"/>
      </g>
     </g>
    </g>
    <g id="ytick_4">
     <g id="line2d_8">
      <g>
       <use xlink:href="#m6741253d83" x="36.05524" y="41.765238" style="stroke: #000000; stroke-width: 0.8"/>
      </g>
     </g>
     <g id="text_9">
      <!-- 1.00 -->
      <g transform="translate(14.74274 44.804613) scale(0.08 -0.08)">
       <use xlink:href="#DejaVuSans-31"/>
       <use xlink:href="#DejaVuSans-2e" x="63.623047"/>
       <use xlink:href="#DejaVuSans-30" x="95.410156"/>
       <use xlink:href="#DejaVuSans-30" x="159.033203"/>
      </g>
     </g>
    </g>
    <g id="ytick_5">
     <g id="line2d_9">
      <g>
       <use xlink:href="#m6741253d83" x="36.05524" y="21.809625" style="stroke: #000000; stroke-width: 0.8"/>
      </g>
     </g>
     <g id="text_10">
      <!-- 1.25 -->
      <g transform="translate(14.74274 24.849) scale(0.08 -0.08)">
       <use xlink:href="#DejaVuSans-31"/>
       <use xlink:href="#DejaVuSans-2e" x="63.623047"/>
       <use xlink:href="#DejaVuSans-32" x="95.410156"/>
       <use xlink:href="#DejaVuSans-35" x="159.033203"/>
      </g>
     </g>
    </g>
    <g id="text_11">
     <!-- VSI dissimilarity -->
     <g transform="translate(9.07899 97.024375) rotate(-90) scale(0.08 -0.08)">
      <defs>
       <path id="DejaVuSans-56" d="M 1831 0 
L 50 4666 
L 709 4666 
L 2188 738 
L 3669 4666 
L 4325 4666 
L 2547 0 
L 1831 0 
z
" transform="scale(0.015625)"/>
       <path id="DejaVuSans-49" d="M 628 4666 
L 1259 4666 
L 1259 0 
L 628 0 
L 628 4666 
z
" transform="scale(0.015625)"/>
       <path id="DejaVuSans-64" d="M 2906 2969 
L 2906 4863 
L 3481 4863 
L 3481 0 
L 2906 0 
L 2906 525 
Q 2725 213 2448 61 
Q 2172 -91 1784 -91 
Q 1150 -91 751 415 
Q 353 922 353 1747 
Q 353 2572 751 3078 
Q 1150 3584 1784 3584 
Q 2172 3584 2448 3432 
Q 2725 3281 2906 2969 
z
M 947 1747 
Q 947 1113 1208 752 
Q 1469 391 1925 391 
Q 2381 391 2643 752 
Q 2906 1113 2906 1747 
Q 2906 2381 2643 2742 
Q 2381 3103 1925 3103 
Q 1469 3103 1208 2742 
Q 947 2381 947 1747 
z
" transform="scale(0.015625)"/>
       <path id="DejaVuSans-73" d="M 2834 3397 
L 2834 2853 
Q 2591 2978 2328 3040 
Q 2066 3103 1784 3103 
Q 1356 3103 1142 2972 
Q 928 2841 928 2578 
Q 928 2378 1081 2264 
Q 1234 2150 1697 2047 
L 1894 2003 
Q 2506 1872 2764 1633 
Q 3022 1394 3022 966 
Q 3022 478 2636 193 
Q 2250 -91 1575 -91 
Q 1294 -91 989 -36 
Q 684 19 347 128 
L 347 722 
Q 666 556 975 473 
Q 1284 391 1588 391 
Q 1994 391 2212 530 
Q 2431 669 2431 922 
Q 2431 1156 2273 1281 
Q 2116 1406 1581 1522 
L 1381 1569 
Q 847 1681 609 1914 
Q 372 2147 372 2553 
Q 372 3047 722 3315 
Q 1072 3584 1716 3584 
Q 2034 3584 2315 3537 
Q 2597 3491 2834 3397 
z
" transform="scale(0.015625)"/>
       <path id="DejaVuSans-6d" d="M 3328 2828 
Q 3544 3216 3844 3400 
Q 4144 3584 4550 3584 
Q 5097 3584 5394 3201 
Q 5691 2819 5691 2113 
L 5691 0 
L 5113 0 
L 5113 2094 
Q 5113 2597 4934 2840 
Q 4756 3084 4391 3084 
Q 3944 3084 3684 2787 
Q 3425 2491 3425 1978 
L 3425 0 
L 2847 0 
L 2847 2094 
Q 2847 2600 2669 2842 
Q 2491 3084 2119 3084 
Q 1678 3084 1418 2786 
Q 1159 2488 1159 1978 
L 1159 0 
L 581 0 
L 581 3500 
L 1159 3500 
L 1159 2956 
Q 1356 3278 1631 3431 
Q 1906 3584 2284 3584 
Q 2666 3584 2933 3390 
Q 3200 3197 3328 2828 
z
" transform="scale(0.015625)"/>
       <path id="DejaVuSans-79" d="M 2059 -325 
Q 1816 -950 1584 -1140 
Q 1353 -1331 966 -1331 
L 506 -1331 
L 506 -850 
L 844 -850 
Q 1081 -850 1212 -737 
Q 1344 -625 1503 -206 
L 1606 56 
L 191 3500 
L 800 3500 
L 1894 763 
L 2988 3500 
L 3597 3500 
L 2059 -325 
z
" transform="scale(0.015625)"/>
      </defs>
      <use xlink:href="#DejaVuSans-56"/>
      <use xlink:href="#DejaVuSans-53" x="68.408203"/>
      <use xlink:href="#DejaVuSans-49" x="131.884766"/>
      <use xlink:href="#DejaVuSans-20" x="161.376953"/>
      <use xlink:href="#DejaVuSans-64" x="193.164062"/>
      <use xlink:href="#DejaVuSans-69" x="256.640625"/>
      <use xlink:href="#DejaVuSans-73" x="284.423828"/>
      <use xlink:href="#DejaVuSans-73" x="336.523438"/>
      <use xlink:href="#DejaVuSans-69" x="388.623047"/>
      <use xlink:href="#DejaVuSans-6d" x="416.40625"/>
      <use xlink:href="#DejaVuSans-69" x="513.818359"/>
      <use xlink:href="#DejaVuSans-6c" x="541.601562"/>
      <use xlink:href="#DejaVuSans-61" x="569.384766"/>
      <use xlink:href="#DejaVuSans-72" x="630.664062"/>
      <use xlink:href="#DejaVuSans-69" x="671.777344"/>
      <use xlink:href="#DejaVuSans-74" x="699.560547"/>
      <use xlink:href="#DejaVuSans-79" x="738.769531"/>
     </g>
    </g>
   </g>
   <g id="line2d_10">
    <path d="M 36.05524 88.419514 
L 168.517764 46.412697 
" clip-path="url(#p41ec7d3961)" style="fill: none; stroke: #cccccc; stroke-width: 0.7; stroke-linecap: square"/>
   </g>
   <g id="patch_3">
    <path d="M 36.05524 115.13476 
L 36.05524 15.07899 
" style="fill: none; stroke: #000000; stroke-width: 0.5; stroke-linejoin: miter; stroke-linecap: square"/>
   </g>
   <g id="patch_4">
    <path d="M 36.05524 115.13476 
L 168.517764 115.13476 
" style="fill: none; stroke: #000000; stroke-width: 0.5; stroke-linejoin: miter; stroke-linecap: square"/>
   </g>
   <g id="text_12">
    <!-- A -->
    <g transform="translate(42.678366 25.084567) scale(0.1 -0.1)">
     <defs>
      <path id="DejaVuSans-Bold-41" d="M 3419 850 
L 1538 850 
L 1241 0 
L 31 0 
L 1759 4666 
L 3194 4666 
L 4922 0 
L 3713 0 
L 3419 850 
z
M 1838 1716 
L 3116 1716 
L 2478 3572 
L 1838 1716 
z
" transform="scale(0.015625)"/>
     </defs>
     <use xlink:href="#DejaVuSans-Bold-41"/>
    </g>
   </g>
   <g id="text_13">
    <!-- Free ears vs Mold 1 -->
    <g transform="translate(63.527752 9.07899) scale(0.08 -0.08)">
     <defs>
      <path id="DejaVuSans-46" d="M 628 4666 
L 3309 4666 
L 3309 4134 
L 1259 4134 
L 1259 2759 
L 3109 2759 
L 3109 2228 
L 1259 2228 
L 1259 0 
L 628 0 
L 628 4666 
z
" transform="scale(0.015625)"/>
      <path id="DejaVuSans-6f" d="M 1959 3097 
Q 1497 3097 1228 2736 
Q 959 2375 959 1747 
Q 959 1119 1226 758 
Q 1494 397 1959 397 
Q 2419 397 2687 759 
Q 2956 1122 2956 1747 
Q 2956 2369 2687 2733 
Q 2419 3097 1959 3097 
z
M 1959 3584 
Q 2709 3584 3137 3096 
Q 3566 2609 3566 1747 
Q 3566 888 3137 398 
Q 2709 -91 1959 -91 
Q 1206 -91 779 398 
Q 353 888 353 1747 
Q 353 2609 779 3096 
Q 1206 3584 1959 3584 
z
" transform="scale(0.015625)"/>
     </defs>
     <use xlink:href="#DejaVuSans-46"/>
     <use xlink:href="#DejaVuSans-72" x="50.269531"/>
     <use xlink:href="#DejaVuSans-65" x="89.132812"/>
     <use xlink:href="#DejaVuSans-65" x="150.65625"/>
     <use xlink:href="#DejaVuSans-20" x="212.179688"/>
     <use xlink:href="#DejaVuSans-65" x="243.966797"/>
     <use xlink:href="#DejaVuSans-61" x="305.490234"/>
     <use xlink:href="#DejaVuSans-72" x="366.769531"/>
     <use xlink:href="#DejaVuSans-73" x="407.882812"/>
     <use xlink:href="#DejaVuSans-20" x="459.982422"/>
     <use xlink:href="#DejaVuSans-76" x="491.769531"/>
     <use xlink:href="#DejaVuSans-73" x="550.949219"/>
     <use xlink:href="#DejaVuSans-20" x="603.048828"/>
     <use xlink:href="#DejaVuSans-4d" x="634.835938"/>
     <use xlink:href="#DejaVuSans-6f" x="721.115234"/>
     <use xlink:href="#DejaVuSans-6c" x="782.296875"/>
     <use xlink:href="#DejaVuSans-64" x="810.080078"/>
     <use xlink:href="#DejaVuSans-20" x="873.556641"/>
     <use xlink:href="#DejaVuSans-31" x="905.34375"/>
    </g>
   </g>
  </g>
  <g id="axes_2">
   <g id="patch_5">
    <path d="M 174.518244 115.13476 
L 306.980768 115.13476 
L 306.980768 15.07899 
L 174.518244 15.07899 
z
" style="fill: #ffffff"/>
   </g>
   <g id="PathCollection_2">
    <g clip-path="url(#p6140321435)">
     <use xlink:href="#m1f9999ce35" x="180.539268" y="52.171779" style="fill: #808080; stroke: #808080"/>
     <use xlink:href="#m1f9999ce35" x="203.817107" y="49.638351" style="fill: #808080; stroke: #808080"/>
     <use xlink:href="#m1f9999ce35" x="216.871" y="103.795236" style="fill: #808080; stroke: #808080"/>
     <use xlink:href="#m1f9999ce35" x="220.535227" y="77.81786" style="fill: #808080; stroke: #808080"/>
     <use xlink:href="#m1f9999ce35" x="204.643958" y="40.050303" style="fill: #808080; stroke: #808080"/>
     <use xlink:href="#m1f9999ce35" x="216.713415" y="84.658114" style="fill: #808080; stroke: #808080"/>
     <use xlink:href="#m1f9999ce35" x="300.959745" y="46.325408" style="fill: #808080; stroke: #808080"/>
     <use xlink:href="#m1f9999ce35" x="207.970447" y="19.62698" style="fill: #808080; stroke: #808080"/>
     <use xlink:href="#m1f9999ce35" x="223.761747" y="63.942473" style="fill: #808080; stroke: #808080"/>
     <use xlink:href="#m1f9999ce35" x="196.738602" y="79.415868" style="fill: #808080; stroke: #808080"/>
     <use xlink:href="#m1f9999ce35" x="255.832475" y="79.766651" style="fill: #808080; stroke: #808080"/>
    </g>
   </g>
   <g id="matplotlib.axis_3">
    <g id="xtick_5">
     <g id="line2d_11">
      <g>
       <use xlink:href="#m8adc84d496" x="206.468802" y="115.13476" style="stroke: #000000; stroke-width: 0.8"/>
      </g>
     </g>
     <g id="text_14">
      <!-- 10 -->
      <g transform="translate(201.378802 124.71351) scale(0.08 -0.08)">
       <use xlink:href="#DejaVuSans-31"/>
       <use xlink:href="#DejaVuSans-30" x="63.623047"/>
      </g>
     </g>
    </g>
    <g id="xtick_6">
     <g id="line2d_12">
      <g>
       <use xlink:href="#m8adc84d496" x="238.65277" y="115.13476" style="stroke: #000000; stroke-width: 0.8"/>
      </g>
     </g>
     <g id="text_15">
      <!-- 15 -->
      <g transform="translate(233.56277 124.71351) scale(0.08 -0.08)">
       <use xlink:href="#DejaVuSans-31"/>
       <use xlink:href="#DejaVuSans-35" x="63.623047"/>
      </g>
     </g>
    </g>
    <g id="xtick_7">
     <g id="line2d_13">
      <g>
       <use xlink:href="#m8adc84d496" x="270.836737" y="115.13476" style="stroke: #000000; stroke-width: 0.8"/>
      </g>
     </g>
     <g id="text_16">
      <!-- 20 -->
      <g transform="translate(265.746737 124.71351) scale(0.08 -0.08)">
       <use xlink:href="#DejaVuSans-32"/>
       <use xlink:href="#DejaVuSans-30" x="63.623047"/>
      </g>
     </g>
    </g>
    <g id="xtick_8">
     <g id="line2d_14">
      <g>
       <use xlink:href="#m8adc84d496" x="303.020705" y="115.13476" style="stroke: #000000; stroke-width: 0.8"/>
      </g>
     </g>
     <g id="text_17">
      <!-- 25 -->
      <g transform="translate(297.930705 124.71351) scale(0.08 -0.08)">
       <use xlink:href="#DejaVuSans-32"/>
       <use xlink:href="#DejaVuSans-35" x="63.623047"/>
      </g>
     </g>
    </g>
    <g id="text_18">
     <!-- vertical RMSE -->
     <g transform="translate(213.266381 136.45601) scale(0.08 -0.08)">
      <use xlink:href="#DejaVuSans-76"/>
      <use xlink:href="#DejaVuSans-65" x="59.179688"/>
      <use xlink:href="#DejaVuSans-72" x="120.703125"/>
      <use xlink:href="#DejaVuSans-74" x="161.816406"/>
      <use xlink:href="#DejaVuSans-69" x="201.025391"/>
      <use xlink:href="#DejaVuSans-63" x="228.808594"/>
      <use xlink:href="#DejaVuSans-61" x="283.789062"/>
      <use xlink:href="#DejaVuSans-6c" x="345.068359"/>
      <use xlink:href="#DejaVuSans-20" x="372.851562"/>
      <use xlink:href="#DejaVuSans-52" x="404.638672"/>
      <use xlink:href="#DejaVuSans-4d" x="474.121094"/>
      <use xlink:href="#DejaVuSans-53" x="560.400391"/>
      <use xlink:href="#DejaVuSans-45" x="623.876953"/>
     </g>
    </g>
   </g>
   <g id="matplotlib.axis_4">
    <g id="ytick_6">
     <g id="line2d_15">
      <g>
       <use xlink:href="#m6741253d83" x="174.518244" y="101.632079" style="stroke: #000000; stroke-width: 0.8"/>
      </g>
     </g>
    </g>
    <g id="ytick_7">
     <g id="line2d_16">
      <g>
       <use xlink:href="#m6741253d83" x="174.518244" y="81.676465" style="stroke: #000000; stroke-width: 0.8"/>
      </g>
     </g>
    </g>
    <g id="ytick_8">
     <g id="line2d_17">
      <g>
       <use xlink:href="#m6741253d83" x="174.518244" y="61.720852" style="stroke: #000000; stroke-width: 0.8"/>
      </g>
     </g>
    </g>
    <g id="ytick_9">
     <g id="line2d_18">
      <g>
       <use xlink:href="#m6741253d83" x="174.518244" y="41.765238" style="stroke: #000000; stroke-width: 0.8"/>
      </g>
     </g>
    </g>
    <g id="ytick_10">
     <g id="line2d_19">
      <g>
       <use xlink:href="#m6741253d83" x="174.518244" y="21.809625" style="stroke: #000000; stroke-width: 0.8"/>
      </g>
     </g>
    </g>
   </g>
   <g id="line2d_20">
    <path d="M 174.518244 62.541936 
L 306.980768 64.990671 
" clip-path="url(#p6140321435)" style="fill: none; stroke: #cccccc; stroke-width: 0.7; stroke-linecap: square"/>
   </g>
   <g id="patch_6">
    <path d="M 174.518244 115.13476 
L 174.518244 15.07899 
" style="fill: none; stroke: #000000; stroke-width: 0.5; stroke-linejoin: miter; stroke-linecap: square"/>
   </g>
   <g id="patch_7">
    <path d="M 174.518244 115.13476 
L 306.980768 115.13476 
" style="fill: none; stroke: #000000; stroke-width: 0.5; stroke-linejoin: miter; stroke-linecap: square"/>
   </g>
   <g id="text_19">
    <!-- B -->
    <g transform="translate(181.14137 25.084567) scale(0.1 -0.1)">
     <defs>
      <path id="DejaVuSans-Bold-42" d="M 2456 2859 
Q 2741 2859 2887 2984 
Q 3034 3109 3034 3353 
Q 3034 3594 2887 3720 
Q 2741 3847 2456 3847 
L 1791 3847 
L 1791 2859 
L 2456 2859 
z
M 2497 819 
Q 2859 819 3042 972 
Q 3225 1125 3225 1434 
Q 3225 1738 3044 1889 
Q 2863 2041 2497 2041 
L 1791 2041 
L 1791 819 
L 2497 819 
z
M 3616 2497 
Q 4003 2384 4215 2081 
Q 4428 1778 4428 1338 
Q 4428 663 3972 331 
Q 3516 0 2584 0 
L 588 0 
L 588 4666 
L 2394 4666 
Q 3366 4666 3802 4372 
Q 4238 4078 4238 3431 
Q 4238 3091 4078 2852 
Q 3919 2613 3616 2497 
z
" transform="scale(0.015625)"/>
     </defs>
     <use xlink:href="#DejaVuSans-Bold-42"/>
    </g>
   </g>
   <g id="text_20">
    <!-- Free ears vs Mold 2 -->
    <g transform="translate(201.990756 9.07899) scale(0.08 -0.08)">
     <use xlink:href="#DejaVuSans-46"/>
     <use xlink:href="#DejaVuSans-72" x="50.269531"/>
     <use xlink:href="#DejaVuSans-65" x="89.132812"/>
     <use xlink:href="#DejaVuSans-65" x="150.65625"/>
     <use xlink:href="#DejaVuSans-20" x="212.179688"/>
     <use xlink:href="#DejaVuSans-65" x="243.966797"/>
     <use xlink:href="#DejaVuSans-61" x="305.490234"/>
     <use xlink:href="#DejaVuSans-72" x="366.769531"/>
     <use xlink:href="#DejaVuSans-73" x="407.882812"/>
     <use xlink:href="#DejaVuSans-20" x="459.982422"/>
     <use xlink:href="#DejaVuSans-76" x="491.769531"/>
     <use xlink:href="#DejaVuSans-73" x="550.949219"/>
     <use xlink:href="#DejaVuSans-20" x="603.048828"/>
     <use xlink:href="#DejaVuSans-4d" x="634.835938"/>
     <use xlink:href="#DejaVuSans-6f" x="721.115234"/>
     <use xlink:href="#DejaVuSans-6c" x="782.296875"/>
     <use xlink:href="#DejaVuSans-64" x="810.080078"/>
     <use xlink:href="#DejaVuSans-20" x="873.556641"/>
     <use xlink:href="#DejaVuSans-32" x="905.34375"/>
    </g>
   </g>
  </g>
  <g id="axes_3">
   <g id="patch_8">
    <path d="M 314.10393 115.13476 
L 446.566454 115.13476 
L 446.566454 15.07899 
L 314.10393 15.07899 
z
" style="fill: #ffffff"/>
   </g>
   <g id="PathCollection_3">
    <g clip-path="url(#p2f7d64cf57)">
     <use xlink:href="#m1f9999ce35" x="327.220107" y="69.632941" style="fill: #808080; stroke: #808080"/>
     <use xlink:href="#m1f9999ce35" x="347.502804" y="99.546873" style="fill: #808080; stroke: #808080"/>
     <use xlink:href="#m1f9999ce35" x="352.485376" y="96.214441" style="fill: #808080; stroke: #808080"/>
     <use xlink:href="#m1f9999ce35" x="346.632599" y="70.646312" style="fill: #808080; stroke: #808080"/>
     <use xlink:href="#m1f9999ce35" x="320.124954" y="78.870207" style="fill: #808080; stroke: #808080"/>
     <use xlink:href="#m1f9999ce35" x="400.914477" y="84.989409" style="fill: #808080; stroke: #808080"/>
     <use xlink:href="#m1f9999ce35" x="440.54543" y="60.083868" style="fill: #808080; stroke: #808080"/>
     <use xlink:href="#m1f9999ce35" x="324.035984" y="110.58677" style="fill: #808080; stroke: #808080"/>
     <use xlink:href="#m1f9999ce35" x="357.070352" y="90.894244" style="fill: #808080; stroke: #808080"/>
     <use xlink:href="#m1f9999ce35" x="349.863242" y="96.838054" style="fill: #808080; stroke: #808080"/>
     <use xlink:href="#m1f9999ce35" x="362.74225" y="67.762102" style="fill: #808080; stroke: #808080"/>
    </g>
   </g>
   <g id="matplotlib.axis_5">
    <g id="xtick_9">
     <g id="line2d_21">
      <g>
       <use xlink:href="#m8adc84d496" x="321.259236" y="115.13476" style="stroke: #000000; stroke-width: 0.8"/>
      </g>
     </g>
     <g id="text_21">
      <!-- 0 -->
      <g transform="translate(318.714236 124.71351) scale(0.08 -0.08)">
       <use xlink:href="#DejaVuSans-30"/>
      </g>
     </g>
    </g>
    <g id="xtick_10">
     <g id="line2d_22">
      <g>
       <use xlink:href="#m8adc84d496" x="352.142679" y="115.13476" style="stroke: #000000; stroke-width: 0.8"/>
      </g>
     </g>
     <g id="text_22">
      <!-- 5 -->
      <g transform="translate(349.597679 124.71351) scale(0.08 -0.08)">
       <use xlink:href="#DejaVuSans-35"/>
      </g>
     </g>
    </g>
    <g id="xtick_11">
     <g id="line2d_23">
      <g>
       <use xlink:href="#m8adc84d496" x="383.026123" y="115.13476" style="stroke: #000000; stroke-width: 0.8"/>
      </g>
     </g>
     <g id="text_23">
      <!-- 10 -->
      <g transform="translate(377.936123 124.71351) scale(0.08 -0.08)">
       <use xlink:href="#DejaVuSans-31"/>
       <use xlink:href="#DejaVuSans-30" x="63.623047"/>
      </g>
     </g>
    </g>
    <g id="xtick_12">
     <g id="line2d_24">
      <g>
       <use xlink:href="#m8adc84d496" x="413.909566" y="115.13476" style="stroke: #000000; stroke-width: 0.8"/>
      </g>
     </g>
     <g id="text_24">
      <!-- 15 -->
      <g transform="translate(408.819566 124.71351) scale(0.08 -0.08)">
       <use xlink:href="#DejaVuSans-31"/>
       <use xlink:href="#DejaVuSans-35" x="63.623047"/>
      </g>
     </g>
    </g>
    <g id="xtick_13">
     <g id="line2d_25">
      <g>
       <use xlink:href="#m8adc84d496" x="444.793009" y="115.13476" style="stroke: #000000; stroke-width: 0.8"/>
      </g>
     </g>
     <g id="text_25">
      <!-- 20 -->
      <g transform="translate(439.703009 124.71351) scale(0.08 -0.08)">
       <use xlink:href="#DejaVuSans-32"/>
       <use xlink:href="#DejaVuSans-30" x="63.623047"/>
      </g>
     </g>
    </g>
    <g id="text_26">
     <!-- vertical RMSE -->
     <g transform="translate(352.852067 136.45601) scale(0.08 -0.08)">
      <use xlink:href="#DejaVuSans-76"/>
      <use xlink:href="#DejaVuSans-65" x="59.179688"/>
      <use xlink:href="#DejaVuSans-72" x="120.703125"/>
      <use xlink:href="#DejaVuSans-74" x="161.816406"/>
      <use xlink:href="#DejaVuSans-69" x="201.025391"/>
      <use xlink:href="#DejaVuSans-63" x="228.808594"/>
      <use xlink:href="#DejaVuSans-61" x="283.789062"/>
      <use xlink:href="#DejaVuSans-6c" x="345.068359"/>
      <use xlink:href="#DejaVuSans-20" x="372.851562"/>
      <use xlink:href="#DejaVuSans-52" x="404.638672"/>
      <use xlink:href="#DejaVuSans-4d" x="474.121094"/>
      <use xlink:href="#DejaVuSans-53" x="560.400391"/>
      <use xlink:href="#DejaVuSans-45" x="623.876953"/>
     </g>
    </g>
   </g>
   <g id="matplotlib.axis_6">
    <g id="ytick_11">
     <g id="line2d_26">
      <g>
       <use xlink:href="#m6741253d83" x="314.10393" y="101.632079" style="stroke: #000000; stroke-width: 0.8"/>
      </g>
     </g>
    </g>
    <g id="ytick_12">
     <g id="line2d_27">
      <g>
       <use xlink:href="#m6741253d83" x="314.10393" y="81.676465" style="stroke: #000000; stroke-width: 0.8"/>
      </g>
     </g>
    </g>
    <g id="ytick_13">
     <g id="line2d_28">
      <g>
       <use xlink:href="#m6741253d83" x="314.10393" y="61.720852" style="stroke: #000000; stroke-width: 0.8"/>
      </g>
     </g>
    </g>
    <g id="ytick_14">
     <g id="line2d_29">
      <g>
       <use xlink:href="#m6741253d83" x="314.10393" y="41.765238" style="stroke: #000000; stroke-width: 0.8"/>
      </g>
     </g>
    </g>
    <g id="ytick_15">
     <g id="line2d_30">
      <g>
       <use xlink:href="#m6741253d83" x="314.10393" y="21.809625" style="stroke: #000000; stroke-width: 0.8"/>
      </g>
     </g>
    </g>
   </g>
   <g id="line2d_31">
    <path d="M 314.10393 92.65231 
L 446.566454 66.639893 
" clip-path="url(#p2f7d64cf57)" style="fill: none; stroke: #cccccc; stroke-width: 0.7; stroke-linecap: square"/>
   </g>
   <g id="patch_9">
    <path d="M 314.10393 115.13476 
L 314.10393 15.07899 
" style="fill: none; stroke: #000000; stroke-width: 0.5; stroke-linejoin: miter; stroke-linecap: square"/>
   </g>
   <g id="patch_10">
    <path d="M 314.10393 115.13476 
L 446.566454 115.13476 
" style="fill: none; stroke: #000000; stroke-width: 0.5; stroke-linejoin: miter; stroke-linecap: square"/>
   </g>
   <g id="text_27">
    <!-- C -->
    <g transform="translate(320.727056 25.084567) scale(0.1 -0.1)">
     <defs>
      <path id="DejaVuSans-Bold-43" d="M 4288 256 
Q 3956 84 3597 -3 
Q 3238 -91 2847 -91 
Q 1681 -91 1000 561 
Q 319 1213 319 2328 
Q 319 3447 1000 4098 
Q 1681 4750 2847 4750 
Q 3238 4750 3597 4662 
Q 3956 4575 4288 4403 
L 4288 3438 
Q 3953 3666 3628 3772 
Q 3303 3878 2944 3878 
Q 2300 3878 1931 3465 
Q 1563 3053 1563 2328 
Q 1563 1606 1931 1193 
Q 2300 781 2944 781 
Q 3303 781 3628 887 
Q 3953 994 4288 1222 
L 4288 256 
z
" transform="scale(0.015625)"/>
     </defs>
     <use xlink:href="#DejaVuSans-Bold-43"/>
    </g>
   </g>
   <g id="text_28">
    <!-- Mold 1 vs Mold 2 -->
    <g transform="translate(346.610192 9.07899) scale(0.08 -0.08)">
     <use xlink:href="#DejaVuSans-4d"/>
     <use xlink:href="#DejaVuSans-6f" x="86.279297"/>
     <use xlink:href="#DejaVuSans-6c" x="147.460938"/>
     <use xlink:href="#DejaVuSans-64" x="175.244141"/>
     <use xlink:href="#DejaVuSans-20" x="238.720703"/>
     <use xlink:href="#DejaVuSans-31" x="270.507812"/>
     <use xlink:href="#DejaVuSans-20" x="334.130859"/>
     <use xlink:href="#DejaVuSans-76" x="365.917969"/>
     <use xlink:href="#DejaVuSans-73" x="425.097656"/>
     <use xlink:href="#DejaVuSans-20" x="477.197266"/>
     <use xlink:href="#DejaVuSans-4d" x="508.984375"/>
     <use xlink:href="#DejaVuSans-6f" x="595.263672"/>
     <use xlink:href="#DejaVuSans-6c" x="656.445312"/>
     <use xlink:href="#DejaVuSans-64" x="684.228516"/>
     <use xlink:href="#DejaVuSans-20" x="747.705078"/>
     <use xlink:href="#DejaVuSans-32" x="779.492188"/>
    </g>
   </g>
  </g>
 </g>
 <defs>
  <clipPath id="p41ec7d3961">
   <rect x="36.05524" y="15.07899" width="132.462524" height="100.05577"/>
  </clipPath>
  <clipPath id="p6140321435">
   <rect x="174.518244" y="15.07899" width="132.462524" height="100.05577"/>
  </clipPath>
  <clipPath id="p2f7d64cf57">
   <rect x="314.10393" y="15.07899" width="132.462524" height="100.05577"/>
  </clipPath>
 </defs>
</svg>
